<svg id="objects" xmlns="http://www.w3.org/2000/svg" viewBox="0 0 490.71 490.71"><defs><style>.cls-1{fill:#2fc0f2;}.cls-2{fill:#28aace;}.cls-3{fill:#1c89a3;}.cls-4{fill:#194230;}.cls-5{fill:#fff;}</style></defs><title>1</title><circle class="cls-1" cx="245.36" cy="245.36" r="245.36"/><path class="cls-2" d="M-410.44,606.2l54.11,67.13s155-28.34,188-199L-286.41,322Z" transform="translate(655.93 -189.08)"/><path class="cls-3" d="M-328.7,308.35H-489.83S-502.13,330-519,331.94C-578.84,539-409.36,590.21-409.26,590.24h0c.11,0,169.59-51.19,109.75-258.3C-316.42,330-328.7,308.35-328.7,308.35Z" transform="translate(655.93 -189.08)"/><path class="cls-4" d="M-337.22,321.4H-483.76s-11.19,19.54-26.53,21.31c-54.42,187.13,99.72,233.35,99.8,233.38h0c.1,0,154.24-46.25,99.82-233.38C-326,340.94-337.22,321.4-337.22,321.4Z" transform="translate(655.93 -189.08)"/><path class="cls-5" d="M-284.95,327l-1.46-5-5.77-.66c-11-1.24-21.69-15.61-24.57-20.55l-2.43-4.12H-501.82l-2.4,4.13c-2.88,4.94-13.53,19.3-24.58,20.54l-5.78.66-1.46,5C-602,549.74-414.86,605.06-412.93,605.56l2.49.64,2.5-.66C-406.05,605-219.53,548.05-284.95,327ZM-410.49,590.24C-433,582.57-574.7,526.07-520.62,335.16c14.17-4.22,24.42-16.65,29.09-23.33h162.08c4.67,6.68,14.91,19.12,29.09,23.33C-246.28,526.08-388,582.57-410.49,590.24Z" transform="translate(655.93 -189.08)"/><path class="cls-5" d="M-369.42,409H-375c0-25-15-39.4-35.65-39.4S-446.33,384-446.33,409H-452c-8.29,0-11,3.08-11,11.37V472.9c0,8.29,2.75,16.1,11,16.1h82.55c8.29,0,13.42-7.81,13.42-16.1V420.37C-356,412.08-361.13,409-369.42,409Zm-31.89,64h-18.76l3.6-26.21a12.88,12.88,0,0,1-6.18-11,12.29,12.29,0,0,1,12.08-12.32,12,12,0,0,1,12.08,12c0,4.62-2.59,9.55-6.4,11.58Zm-33.77-64c0-23,12.25-28.14,24.39-28.14S-386.3,386-386.3,409Z" transform="translate(655.93 -189.08)"/></svg>