<svg id="Layer_1" data-name="Layer 1" xmlns="http://www.w3.org/2000/svg" xmlns:xlink="http://www.w3.org/1999/xlink" viewBox="0 0 778.94 279.48"><defs><style>.cls-1{fill:#426878;}.cls-2{fill:#294753;}.cls-3{fill:#5aa5c8;}.cls-4{fill:#96d9f7;}.cls-5{font-size:18.11px;fill:#333;font-family:Raleway-Regular, Raleway;}.cls-6{fill:#53c9f4;}.cls-7{fill:#b390c2;}.cls-8{fill:#d5c5e0;}.cls-9{fill:#db6d5b;}.cls-10{fill:#b84f3f;}.cls-11{fill:url(#linear-gradient);}.cls-12{fill:#ffce67;}.cls-13{fill:#86cba6;}.cls-14{fill:#ffe2bb;}.cls-15{fill:#b6dfd0;}</style><linearGradient id="linear-gradient" x1="309.05" y1="385.39" x2="268.92" y2="439.89" gradientTransform="translate(112.8 -30.16)" gradientUnits="userSpaceOnUse"><stop offset="0" stop-color="#009ede"/><stop offset="0.36" stop-color="#17a9e4"/><stop offset="1" stop-color="#49c2f0"/></linearGradient></defs><title>file</title><circle class="cls-1" cx="111.65" cy="111.64" r="111.64"/><path class="cls-2" d="M76,427.8h34.05v34.05a10.56,10.56,0,0,0,10.53,10.53H162a10.57,10.57,0,0,0,10.53-10.53V427.8h34.05a10.56,10.56,0,0,0,10.53-10.53V375.91a10.56,10.56,0,0,0-10.53-10.53H172.5V331.33A10.57,10.57,0,0,0,162,320.79H120.62a10.56,10.56,0,0,0-10.53,10.53v34.05H76A10.57,10.57,0,0,0,65.5,375.91v41.36A10.56,10.56,0,0,0,76,427.8Z" transform="translate(-21.06 -271.02)"/><path class="cls-3" d="M198,351.45H163.92V317.4a10.57,10.57,0,0,0-10.54-10.53H112A10.56,10.56,0,0,0,101.5,317.4v34.05H67.44A10.57,10.57,0,0,0,56.91,362v41.36a10.57,10.57,0,0,0,10.53,10.53H101.5v34.05A10.56,10.56,0,0,0,112,458.46h41.35a10.57,10.57,0,0,0,10.54-10.53V413.87H198a10.56,10.56,0,0,0,10.54-10.53V362A10.57,10.57,0,0,0,198,351.45Z" transform="translate(-21.06 -271.02)"/><path class="cls-4" d="M200.94,359.38a6.28,6.28,0,0,1,3.09.81,6.33,6.33,0,0,0-6.06-4.52H162.68v3.72Z" transform="translate(-21.06 -271.02)"/><path class="cls-4" d="M108.68,413.37h-3v34.55a6.32,6.32,0,0,0,3.24,5.51,6.17,6.17,0,0,1-.26-1.79Z" transform="translate(-21.06 -271.02)"/><path class="cls-4" d="M64.1,365.7a6.33,6.33,0,0,1,6.32-6.32h38.27V321.12A6.33,6.33,0,0,1,115,314.8h41.36a6.26,6.26,0,0,1,3.08.81,6.33,6.33,0,0,0-6.06-4.52H112a6.33,6.33,0,0,0-6.32,6.32v38.26H67.44A6.33,6.33,0,0,0,61.12,362v41.36a6.32,6.32,0,0,0,3.24,5.51,6.24,6.24,0,0,1-.27-1.8Z" transform="translate(-21.06 -271.02)"/><text class="cls-5" transform="translate(60.61 252.37)">Add website</text><circle class="cls-6" cx="671.46" cy="107.82" r="107.48"/><path class="cls-3" d="M709.91,377.8l22.19.06c7.42,0,9.12-4.18,3.77-9.33L681.4,316.11a14.31,14.31,0,0,0-19.52-.08l-55.1,52.17c-5.39,5.1-3.72,9.3,3.7,9.32l22.28.06c4.66,49.52,46.36,83.58,97.15,83.58a97.26,97.26,0,0,0,34.57-6.31C733.7,439.81,712.05,413.77,709.91,377.8Z" transform="translate(-21.06 -271.02)"/><path class="cls-7" d="M609.14,365.5l22.28.06c4.66,49.52,46.36,83.58,97.15,83.58a97.23,97.23,0,0,0,34.57-6.31c-30.76-15-52.42-41.08-54.56-77.06l22.19.06c7.42,0,9.12-4.18,3.77-9.33l-54.47-52.42a14.31,14.31,0,0,0-19.53-.08l-55.1,52.17C600,361.28,601.71,365.48,609.14,365.5Z" transform="translate(-21.06 -271.02)"/><path class="cls-8" d="M607.76,359.82l55.1-52.17a10.88,10.88,0,0,1,14.87.06l54.46,52.42c.16.14.29.28.41.42a4.09,4.09,0,0,0,1.65-.52,6.58,6.58,0,0,0-2.06-2.87l-54.46-52.43a10.9,10.9,0,0,0-14.87-.06l-55.1,52.17a6.6,6.6,0,0,0-2.08,2.85,4.31,4.31,0,0,0,1.69.52C607.49,360.09,607.61,360,607.76,359.82Z" transform="translate(-21.06 -271.02)"/><text class="cls-5" transform="translate(616 244.38)">Trafic to your<tspan x="-19.63" y="21.73">website increases</tspan></text><circle class="cls-9" cx="379.44" cy="112.44" r="112.19"/><path class="cls-10" d="M438.07,320.93c-3.21-3-6.11-2.16-7.24-1.68s-3.68,2.07-3.68,6.43v20.53h-31a9.06,9.06,0,0,0-9.06,9v18.16h-4.67V352.88c0-4.36-2.57-6-3.68-6.43s-4-1.28-7.24,1.68l-62.24,58a8.7,8.7,0,0,0,0,12.79l62.24,58c3.21,3,6.11,2.16,7.22,1.69s3.7-2.09,3.7-6.45V451.57h31a9.06,9.06,0,0,0,9.05-9V424.45h2v-.09h2.65V444.9c0,4.36,2.57,6,3.7,6.45s4,1.27,7.22-1.69l62.24-58a8.7,8.7,0,0,0,0-12.79Z" transform="translate(-21.06 -271.02)"/><path class="cls-3" d="M433.79,305.49l62.24,58a8.7,8.7,0,0,1,0,12.79l-62.24,58c-3.2,3-6.11,2.17-7.22,1.69s-3.7-2.09-3.7-6.45V408.93h-31a9.06,9.06,0,0,1-9.06-9V339.82a9.06,9.06,0,0,1,9.06-9h31V310.25c0-4.36,2.57-6,3.68-6.43S430.58,302.53,433.79,305.49Z" transform="translate(-21.06 -271.02)"/><path class="cls-11" d="M410.79,356H383.36v43.64a9.43,9.43,0,0,0,9.43,9.42h27.43V365.36A9.43,9.43,0,0,0,410.79,356Z" transform="translate(-21.06 -271.02)"/><path class="cls-4" d="M430.71,313.09l62.23,58a4.42,4.42,0,0,1,.74.94,4.13,4.13,0,0,0-.74-5.22l-62.23-58c-1.83-1.69-3.31-1-3.31,1.44v4.28C427.39,312,428.87,311.4,430.71,313.09Z" transform="translate(-21.06 -271.02)"/><path class="cls-4" d="M391.86,339.58h31a4.54,4.54,0,0,0,4.53-4.52v-4.28a4.54,4.54,0,0,1-4.53,4.52h-31a4.53,4.53,0,0,0-4.53,4.52v4.28A4.53,4.53,0,0,1,391.86,339.58Z" transform="translate(-21.06 -271.02)"/><path class="cls-12" d="M367.21,332.69l-62.24,58a8.7,8.7,0,0,0,0,12.79l62.24,58c3.2,3,6.11,2.16,7.22,1.69s3.7-2.09,3.7-6.45V436.13h31a9.06,9.06,0,0,0,9.05-9V367a9.06,9.06,0,0,0-9.05-9h-31V337.44c0-4.36-2.57-6-3.68-6.43S370.42,329.73,367.21,332.69Z" transform="translate(-21.06 -271.02)"/><path class="cls-13" d="M409.14,358H382.81v41.9a9.06,9.06,0,0,0,9.06,9h26.33V367A9.06,9.06,0,0,0,409.14,358Z" transform="translate(-21.06 -271.02)"/><path class="cls-14" d="M370.29,340.29l-62.23,58a4.28,4.28,0,0,0-.75.94,4.13,4.13,0,0,1,.75-5.22l62.23-58c1.83-1.69,3.31-1,3.31,1.44v4.28C373.6,339.24,372.12,338.6,370.29,340.29Z" transform="translate(-21.06 -271.02)"/><path class="cls-14" d="M409.14,366.78h-31a4.54,4.54,0,0,1-4.53-4.52V358a4.54,4.54,0,0,0,4.53,4.52h31a4.53,4.53,0,0,1,4.53,4.52v4.29A4.53,4.53,0,0,0,409.14,366.78Z" transform="translate(-21.06 -271.02)"/><path class="cls-15" d="M413.66,371.3V367a4.53,4.53,0,0,0-4.53-4.52H382.81v4.28h26.33A4.53,4.53,0,0,1,413.66,371.3Z" transform="translate(-21.06 -271.02)"/><text class="cls-5" transform="translate(297.51 253.71)">viewing others&apos; sites or<tspan x="5.1" y="21.73" xml:space="preserve"> buy a traffic package</tspan></text></svg>